# xmcd CD database file
#
# Track frame offsets:
#	150
#	21835
#	39720
#	61937
#	90650
#	110955
#	131887
#	152237
#	175037
#	194100
#	217465
#	235562
#
# Disc length: 3377 seconds
#
# Revision: 0
# Processed by: cddbd v1.5.2PL0 Copyright (c) Steve Scherf et al.
# Submitted via: CDex 1.51
#
DISCID=b50d2f0c
DTITLE=胡笙-薩克斯風 - 清馨集１－薩克斯風１
DYEAR=1900
DGENRE=Jazz
TTITLE0=KISS GOOD-BYE (吻別)
TTITLE1=花(花心)
TTITLE2=BABY SORRY (寶貝對不起)
TTITLE3=夢守不住
TTITLE4=新鴛鴦蝴蝶夢
TTITLE5=傷心到何時
TTITLE6=愛到不醉不歸
TTITLE7=TOMORROW(愛把你給我)
TTITLE8=PIECE OF MY WISH (思念)
TTITLE9=感情路
TTITLE10=想你
TTITLE11=等待能有一天被愛
EXTD=
EXTT0=
EXTT1=
EXTT2=
EXTT3=
EXTT4=
EXTT5=
EXTT6=
EXTT7=
EXTT8=
EXTT9=
EXTT10=
EXTT11=
PLAYORDER=
